<svg fill="none" xmlns="http://www.w3.org/2000/svg" viewBox="0 0 24 24"><path d="M11.46 18.923V3.602S9.408 1.846 6.495 1.846c-2.912 0-4.966 1.56-4.966 1.56v15.517s2.054-1.514 4.966-1.514c2.913 0 4.967 1.514 4.967 1.514z" fill="#E7EEFC"/><path d="M23.685 4.968h-.763v14.831h-9.17v.78H9.933v-.78H.763V4.968H0v15.614h9.17v.78h5.396l-.048-.78h9.167V4.968z" fill="#E7EEFC"/><path d="M22.158 18.923V3.602s-2.055-1.756-4.967-1.756c-2.912 0-4.967 1.56-4.967 1.56v15.517s2.055-1.514 4.967-1.514c2.912 0 4.967 1.514 4.967 1.514zm-7.241-14.94h6.061v.775h-6.061v-.776zm0 2.32h6.061v.774h-6.061v-.773zm0 2.324h6.061v.776h-6.061v-.776zm-.757 3.095h-.756v-.773h.756v.773zm0-2.322h-.756v-.775h.756V9.4zm0-2.321h-.756v-.773h.756v.773zm0-2.324h-.756V3.98h.756v.775zm.757 6.194h6.061v.773h-6.061v-.773z" fill="#E7EEFC"/></svg>

