<svg fill="none" xmlns="http://www.w3.org/2000/svg" viewBox="0 0 24 24"><path d="M10.203 0a.79.79 0 00-.348.075.9.9 0 00-.296.226 1.066 1.066 0 00-.198.34 1.19 1.19 0 00-.07.403h-5.38a.79.79 0 00-.347.075.9.9 0 00-.296.225 1.066 1.066 0 00-.198.34 1.19 1.19 0 000 .806c.046.127.113.243.198.34a.9.9 0 00.296.225.79.79 0 00.348.076h16.177a.79.79 0 00.347-.076.9.9 0 00.296-.225c.085-.097.152-.213.198-.34a1.192 1.192 0 000-.806 1.067 1.067 0 00-.198-.34.9.9 0 00-.296-.225.79.79 0 00-.348-.075h-5.38c0-.139-.023-.276-.07-.403a1.068 1.068 0 00-.197-.34.9.9 0 00-.296-.226.79.79 0 00-.348-.075h-3.594zM3.912 5.217v16.696c0 1.153.804 2.087 1.797 2.087h12.582c.993 0 1.797-.934 1.797-2.087V5.217H3.913z" fill="#757575"/></svg>
